
<svg version="1.0" xmlns="http://www.w3.org/2000/svg"
 width="174" height="60" viewBox="10 0 1899 1739" fill="#044cab" >

<g transform="translate(0.000000,1629.000000) scale(0.100000,-0.100000)">
<path d="M7790 16094 c-30 -2 -127 -8 -215 -14 -88 -6 -241 -19 -340 -31
-2207 -246 -4199 -1394 -5535 -3189 -837 -1124 -1364 -2465 -1519 -3865 -38
-338 -45 -485 -45 -895 0 -410 7 -557 45 -895 245 -2205 1394 -4199 3189
-5535 1690 -1258 3814 -1789 5930 -1484 231 33 539 94 783 155 1788 448 3365
1504 4477 2999 1258 1690 1789 3814 1484 5930 -33 231 -94 539 -155 783 -448
1788 -1504 3365 -2999 4477 -833 619 -1796 1076 -2807 1329 -446 111 -885 182
-1373 221 -134 11 -814 21 -920 14z m2765 -6475 c1616 -2631 2442 -3984 2487
-4075 120 -245 164 -428 155 -649 -4 -99 -11 -151 -31 -218 -95 -322 -344
-578 -774 -796 -132 -67 -420 -186 -428 -178 -2 2 40 33 94 69 297 198 556
466 672 697 79 159 113 302 112 476 0 164 -28 279 -105 439 -74 151 -160 268
-302 411 -203 204 -439 368 -770 535 -705 357 -1636 596 -2660 684 -88 7 -142
14 -120 15 260 9 480 195 532 449 44 216 -74 464 -273 569 -120 63 -139 66
-481 71 -172 2 -313 6 -313 9 0 3 20 42 44 86 430 791 410 1693 -54 2466 -71
119 -197 292 -216 298 -15 5 -144 -170 -225 -308 -167 -282 -275 -578 -331
-904 -18 -106 -22 -171 -22 -350 -1 -233 8 -321 50 -515 50 -223 152 -499 260
-696 l45 -82 -308 -4 c-338 -5 -357 -8 -478 -71 -141 -74 -253 -238 -277 -403
-41 -287 162 -551 467 -607 l60 -11 -155 -13 c-1385 -117 -2617 -525 -3285
-1086 -329 -276 -509 -569 -546 -890 -32 -270 61 -559 263 -829 116 -153 343
-363 506 -467 29 -18 51 -35 49 -37 -6 -7 -179 66 -302 128 -258 128 -494 313
-628 493 -72 96 -148 250 -177 360 -14 53 -23 124 -27 210 -9 231 37 415 171
678 53 104 907 1502 2486 4072 1323 2153 2407 3914 2410 3914 3 0 1094 -1773
2425 -3940z m-4198 -4214 c173 -286 413 -684 534 -884 l220 -364 -113 6 c-143
7 -282 42 -402 101 -124 61 -211 135 -281 240 l-57 86 -603 0 -604 0 -44 -68
c-60 -93 -99 -136 -173 -188 -139 -99 -327 -161 -522 -171 l-113 -6 69 114
c38 63 258 427 489 809 231 382 441 730 467 773 l48 77 385 -2 385 -3 315
-520z m1683 -170 l0 -695 706 0 705 0 -18 -31 c-50 -85 -232 -233 -356 -289
-113 -51 -126 -52 -777 -48 l-605 3 -56 28 c-103 50 -179 158 -199 284 -6 33
-10 359 -10 751 l0 692 305 0 305 0 0 -695z m3501 664 c32 -15 76 -46 99 -69
47 -47 96 -143 106 -207 l7 -43 -689 -2 -689 -3 656 -288 c724 -318 754 -335
834 -452 57 -85 78 -156 74 -258 -3 -69 -9 -94 -37 -149 -40 -82 -111 -149
-207 -195 -130 -62 -143 -63 -841 -63 -551 0 -637 2 -685 16 -103 31 -234 107
-333 195 -51 45 -126 134 -126 150 0 5 348 10 841 11 l841 3 -363 159 c-614
269 -907 403 -964 441 -148 98 -239 273 -221 424 17 140 121 264 266 317 117
42 140 43 770 41 l605 -2 56 -26z"/>
<path d="M5462 5283 l-190 -318 195 -3 c107 -1 279 -1 382 0 l188 3 -187 312
c-102 172 -189 315 -192 318 -3 3 -91 -137 -196 -312z"/>
</g>
</svg>
