<?xml version="1.0" standalone="no"?>
<!DOCTYPE svg PUBLIC "-//W3C//DTD SVG 20010904//EN"
 "http://www.w3.org/TR/2001/REC-SVG-20010904/DTD/svg10.dtd">
<svg version="1.0" xmlns="http://www.w3.org/2000/svg"
 width="300.000000pt" height="300.000000pt" viewBox="0 0 300.000000 300.000000"
 preserveAspectRatio="xMidYMid meet">
<metadata>
Created by potrace 1.16, written by Peter Selinger 2001-2019
</metadata>
<g transform="translate(0.000000,300.000000) scale(0.100000,-0.100000)"
fill="#000000" stroke="none">
<path d="M1310 2963 c-254 -41 -441 -112 -630 -238 -331 -220 -552 -549 -637
-945 -26 -121 -26 -459 0 -580 126 -587 573 -1036 1160 -1162 137 -29 426 -32
562 -5 613 123 1070 581 1191 1192 27 136 25 416 -4 551 -46 213 -129 406
-244 569 -83 118 -251 285 -363 361 -268 182 -540 265 -858 263 -84 -1 -163
-4 -177 -6z m635 -1189 c242 -394 450 -737 462 -762 26 -54 30 -126 10 -175
-23 -53 -107 -121 -177 -142 -19 -6 -12 4 28 40 67 61 92 108 92 178 0 165
-238 310 -597 364 -85 12 -109 19 -96 26 45 24 63 50 63 93 0 35 -5 47 -31 68
-26 22 -40 26 -95 26 -35 0 -64 1 -64 3 0 2 12 32 26 68 54 133 40 293 -37
414 -30 47 -32 48 -46 30 -33 -44 -72 -134 -83 -193 -16 -80 -7 -165 25 -246
14 -34 25 -66 25 -69 0 -4 -29 -7 -64 -7 -76 0 -112 -22 -122 -76 -8 -45 7
-79 45 -102 l30 -18 -114 -18 c-241 -36 -418 -107 -520 -210 -92 -92 -105
-165 -50 -262 13 -22 42 -57 64 -77 48 -43 38 -48 -24 -11 -57 33 -109 92
-125 139 -14 44 -8 111 16 158 13 24 820 1344 890 1455 8 12 18 22 22 22 4 0
205 -322 447 -716z m-733 -844 c54 -87 94 -161 90 -164 -24 -15 -127 30 -139
60 -4 11 -29 14 -118 14 -101 0 -114 -2 -131 -21 -35 -39 -139 -75 -132 -46 2
8 44 82 93 165 l90 152 75 0 75 0 97 -160z m268 35 l0 -125 130 0 c77 0 130
-4 130 -10 0 -5 -17 -21 -37 -35 -36 -24 -45 -25 -167 -25 -174 0 -166 -8
-166 177 l0 143 55 0 55 0 0 -125z m662 108 c40 -36 24 -43 -99 -43 -68 0
-113 -4 -107 -9 5 -5 54 -28 109 -51 55 -24 112 -54 128 -68 35 -33 36 -74 2
-107 -23 -24 -29 -25 -168 -25 -133 0 -147 2 -177 23 -64 43 -54 47 107 47
l148 0 -115 51 c-63 27 -125 61 -137 75 -30 33 -29 69 2 99 23 24 29 25 156
25 109 0 136 -3 151 -17z"/>
</g>
</svg>
